<svg width="62" height="62" viewBox="0 0 62 62" fill="none" xmlns="http://www.w3.org/2000/svg">
<g clip-path="url(#clip0_233_9482)">
<path fill-rule="evenodd" clip-rule="evenodd" d="M31.1907 0.349609C14.192 0.349609 0.423828 14.1178 0.423828 31.1165C0.423828 44.7308 9.23084 56.2299 21.4607 60.3066C22.999 60.5758 23.5759 59.6528 23.5759 58.8451C23.5759 58.1144 23.5374 55.6915 23.5374 53.1148C15.8073 54.5378 13.8074 51.2303 13.1921 49.4997C12.846 48.6151 11.3461 45.8846 10.0385 45.1539C8.96163 44.577 7.42329 43.154 10 43.1156C12.4229 43.0771 14.1535 45.3462 14.7304 46.2692C17.4994 50.9227 21.9222 49.6151 23.6913 48.8074C23.9605 46.8076 24.7681 45.4615 25.6527 44.6924C18.807 43.9232 11.6537 41.2696 11.6537 29.5012C11.6537 26.1553 12.846 23.3863 14.8073 21.2326C14.4997 20.4635 13.4228 17.3098 15.115 13.0794C15.115 13.0794 17.6917 12.2718 23.5759 16.233C26.0372 15.5408 28.6524 15.1946 31.2676 15.1946C33.8828 15.1946 36.498 15.5408 38.9593 16.233C44.8435 12.2333 47.4202 13.0794 47.4202 13.0794C49.1124 17.3098 48.0356 20.4635 47.7279 21.2326C49.6893 23.3863 50.8815 26.1169 50.8815 29.5012C50.8815 41.308 43.6897 43.9232 36.8441 44.6924C37.9594 45.6538 38.9209 47.4998 38.9209 50.3842C38.9209 54.4993 38.8824 57.8067 38.8824 58.8451C38.8824 59.6528 39.4593 60.6142 40.9976 60.3066C47.1053 58.2445 52.4126 54.319 56.1725 49.0827C59.9325 43.8464 61.9557 37.5629 61.9576 31.1165C61.9576 14.1178 48.1894 0.349609 31.1907 0.349609Z" fill="white"/>
</g>
<defs>
<clipPath id="clip0_233_9482">
<rect width="61.5337" height="61.5337" fill="white" transform="translate(0.423828 0.349609)"/>
</clipPath>
</defs>
</svg>
