<svg width="2191" height="2191" viewBox="0 0 2191 2191" fill="none" xmlns="http://www.w3.org/2000/svg">
<circle cx="1095.5" cy="1095.5" r="1095.5" fill="url(#paint0_linear_204_61)"/>
<path d="M1159.85 217.359C1162.3 183.684 1191.63 158.169 1225.08 162.798C1441.54 192.757 1641.58 297.212 1790.14 459.194C1952.52 636.242 2041.11 868.637 2037.81 1108.85C2034.51 1349.06 1939.56 1578.93 1772.38 1751.45C1605.2 1923.96 1378.42 2026.09 1138.44 2036.94C898.451 2047.79 663.387 1966.54 481.324 1809.81C299.262 1653.07 183.959 1432.71 158.998 1193.77C134.038 954.842 201.307 715.402 347.046 524.427C480.384 349.701 670.188 227.624 883.063 178.258C915.954 170.63 947.471 193.395 952.95 226.711V226.711C958.429 260.027 935.784 291.25 902.969 299.195C720.858 343.289 558.662 448.671 444.245 598.603C317.423 764.79 258.885 973.151 280.606 1181.07C302.326 1388.99 402.663 1580.75 561.095 1717.14C719.526 1853.53 924.079 1924.23 1132.92 1914.79C1341.75 1905.35 1539.09 1816.48 1684.57 1666.36C1830.05 1516.23 1912.68 1316.2 1915.55 1107.17C1918.43 898.135 1841.33 695.905 1700.03 541.837C1572.55 402.841 1401.51 312.522 1216.16 285.038C1182.77 280.085 1157.4 251.033 1159.85 217.359V217.359Z" fill="white"/>
<defs>
<linearGradient id="paint0_linear_204_61" x1="1730" y1="297" x2="1095.5" y2="2191" gradientUnits="userSpaceOnUse">
<stop stop-color="#00FFA3"/>
<stop offset="1" stop-color="#9D74D1"/>
</linearGradient>
</defs>
</svg>
